<?xml version="1.0" encoding="UTF-8" standalone="no"?>
<!DOCTYPE svg PUBLIC "-//W3C//DTD SVG 1.1//EN"
 "http://www.w3.org/Graphics/SVG/1.1/DTD/svg11.dtd">
<!-- Generated by graphviz version 2.40.1 (20161225.0304)
 -->
<!-- Title: %3 Pages: 1 -->
<svg width="232pt" height="418pt"
 viewBox="0.00 0.00 232.50 417.87" xmlns="http://www.w3.org/2000/svg" xmlns:xlink="http://www.w3.org/1999/xlink">
<g id="graph0" class="graph" transform="scale(1 1) rotate(0) translate(4 413.8721)">
<title>%3</title>
<polygon fill="#ffffff" stroke="transparent" points="-4,4 -4,-413.8721 228.4975,-413.8721 228.4975,4 -4,4"/>
<!-- A -->
<g id="node1" class="node">
<title>A</title>
<polygon fill="#d3d3d3" stroke="#000000" points="70.2487,-397.6589 47.2487,-397.6589 47.2487,-379.6589 70.2487,-379.6589 70.2487,-397.6589"/>
<text text-anchor="middle" x="58.7487" y="-386.4589" font-family="Times,serif" font-size="9.00" fill="#000000">A</text>
</g>
<!-- 1553 -->
<g id="node6" class="node">
<title>1553</title>
<ellipse fill="#ffffff" stroke="#000000" cx="91.7487" cy="-306.697" rx="25" ry="25"/>
<text text-anchor="middle" x="91.7487" y="-304.497" font-family="Times,serif" font-size="9.00" fill="#000000">1553</text>
</g>
<!-- A&#45;&gt;1553 -->
<g id="edge6" class="edge">
<title>A&#45;&gt;1553</title>
<path fill="none" stroke="#ff0000" stroke-width=".2777" d="M62.4064,-379.5744C66.3434,-369.7961 72.8333,-353.6772 78.7099,-339.0816"/>
<polygon fill="#ff0000" stroke="#ff0000" stroke-width=".2777" points="81.9618,-340.3758 82.45,-329.7922 75.4683,-337.7613 81.9618,-340.3758"/>
</g>
<!-- 2879 -->
<g id="node10" class="node">
<title>2879</title>
<ellipse fill="#ffffff" stroke="#000000" cx="24.7487" cy="-306.697" rx="25" ry="25"/>
<text text-anchor="middle" x="24.7487" y="-304.497" font-family="Times,serif" font-size="9.00" fill="#000000">2879</text>
</g>
<!-- A&#45;&gt;2879 -->
<g id="edge9" class="edge">
<title>A&#45;&gt;2879</title>
<path fill="none" stroke="#00ff00" stroke-width=".3253" d="M54.9802,-379.5744C50.9239,-369.7961 44.2374,-353.6772 38.1827,-339.0816"/>
<polygon fill="#00ff00" stroke="#00ff00" stroke-width=".3253" points="41.3938,-337.6879 34.3292,-329.7922 34.9281,-340.3701 41.3938,-337.6879"/>
</g>
<!-- B -->
<g id="node2" class="node">
<title>B</title>
<polygon fill="#d3d3d3" stroke="#000000" points="156.2487,-397.6589 133.2487,-397.6589 133.2487,-379.6589 156.2487,-379.6589 156.2487,-397.6589"/>
<text text-anchor="middle" x="144.7487" y="-386.4589" font-family="Times,serif" font-size="9.00" fill="#000000">B</text>
</g>
<!-- A XOR B -->
<g id="node3" class="node">
<title>A XOR B</title>
<ellipse fill="#add8e6" stroke="#000000" cx="91.7487" cy="-208.4716" rx="37.4533" ry="37.4533"/>
<text text-anchor="middle" x="91.7487" y="-206.2716" font-family="Times,serif" font-size="9.00" fill="#000000">A XOR B</text>
</g>
<!-- B&#45;&gt;A XOR B -->
<g id="edge3" class="edge">
<title>B&#45;&gt;A XOR B</title>
<path fill="none" stroke="#ff0000" stroke-width=".4437" d="M143.9309,-379.6192C142.0745,-360.9918 136.8172,-317.1306 125.7487,-281.9483 122.5202,-271.6859 118.1829,-260.992 113.6886,-251.0419"/>
<polygon fill="#ff0000" stroke="#ff0000" stroke-width=".4437" points="116.762,-249.3512 109.3624,-241.7685 110.4183,-252.3106 116.762,-249.3512"/>
</g>
<!-- B&#45;&gt;1553 -->
<g id="edge8" class="edge">
<title>B&#45;&gt;1553</title>
<path fill="none" stroke="#ff0000" stroke-width=".7751" d="M138.8743,-379.5744C132.1604,-369.1917 120.824,-351.6605 110.9525,-336.3947"/>
<polygon fill="#ff0000" stroke="#ff0000" stroke-width=".7751" points="113.7247,-334.2361 105.3556,-327.7394 107.8466,-338.0372 113.7247,-334.2361"/>
</g>
<!-- 1947 -->
<g id="node9" class="node">
<title>1947</title>
<ellipse fill="#ffffff" stroke="#000000" cx="197.7487" cy="-306.697" rx="25" ry="25"/>
<text text-anchor="middle" x="197.7487" y="-304.497" font-family="Times,serif" font-size="9.00" fill="#000000">1947</text>
</g>
<!-- B&#45;&gt;1947 -->
<g id="edge1" class="edge">
<title>B&#45;&gt;1947</title>
<path fill="none" stroke="#ff0000" stroke-width=".1602" d="M150.6232,-379.5744C157.3371,-369.1917 168.6735,-351.6605 178.545,-336.3947"/>
<polygon fill="#ff0000" stroke="#ff0000" stroke-width=".1602" points="181.6508,-338.0372 184.1419,-327.7394 175.7727,-334.2361 181.6508,-338.0372"/>
</g>
<!-- 3204 -->
<g id="node4" class="node">
<title>3204</title>
<ellipse fill="#ffffff" stroke="#000000" cx="146.7487" cy="-110.2462" rx="25" ry="25"/>
<text text-anchor="middle" x="146.7487" y="-108.0462" font-family="Times,serif" font-size="9.00" fill="#000000">3204</text>
</g>
<!-- 1786 -->
<g id="node8" class="node">
<title>1786</title>
<ellipse fill="#ffffff" stroke="#000000" cx="199.7487" cy="-24.7487" rx="25" ry="25"/>
<text text-anchor="middle" x="199.7487" y="-22.5487" font-family="Times,serif" font-size="9.00" fill="#000000">1786</text>
</g>
<!-- 3204&#45;&gt;1786 -->
<g id="edge7" class="edge">
<title>3204&#45;&gt;1786</title>
<path fill="none" stroke="#ff0000" stroke-width=".3124" d="M159.8499,-89.112C166.2838,-78.733 174.1478,-66.0471 181.1881,-54.69"/>
<polygon fill="#ff0000" stroke="#ff0000" stroke-width=".3124" points="184.3206,-56.2796 186.6146,-45.9361 178.371,-52.5915 184.3206,-56.2796"/>
</g>
<!-- 367 -->
<g id="node5" class="node">
<title>367</title>
<ellipse fill="#ffffff" stroke="#000000" cx="195.7487" cy="-388.6589" rx="21.4286" ry="21.4286"/>
<text text-anchor="middle" x="195.7487" y="-386.4589" font-family="Times,serif" font-size="9.00" fill="#000000">367</text>
</g>
<!-- 1553&#45;&gt;A XOR B -->
<g id="edge5" class="edge">
<title>1553&#45;&gt;A XOR B</title>
<path fill="none" stroke="#ff0000" stroke-width="2.0857" d="M91.7487,-281.9106C91.7487,-274.1493 91.7487,-265.3038 91.7487,-256.5044"/>
<polygon fill="#ff0000" stroke="#ff0000" stroke-width="2.0857" points="95.2488,-256.2637 91.7487,-246.2637 88.2488,-256.2638 95.2488,-256.2637"/>
</g>
<!-- 2351 -->
<g id="node7" class="node">
<title>2351</title>
<ellipse fill="#ffffff" stroke="#000000" cx="184.7487" cy="-208.4716" rx="25" ry="25"/>
<text text-anchor="middle" x="184.7487" y="-206.2716" font-family="Times,serif" font-size="9.00" fill="#000000">2351</text>
</g>
<!-- 2351&#45;&gt;3204 -->
<g id="edge10" class="edge">
<title>2351&#45;&gt;3204</title>
<path fill="none" stroke="#00ff00" stroke-width=".664" d="M175.7433,-185.1936C170.8689,-172.5938 164.7676,-156.8228 159.421,-143.0025"/>
<polygon fill="#00ff00" stroke="#00ff00" stroke-width=".664" points="162.5619,-141.4207 155.6896,-133.3572 156.0334,-143.9464 162.5619,-141.4207"/>
</g>
<!-- 2351&#45;&gt;1786 -->
<g id="edge12" class="edge">
<title>2351&#45;&gt;1786</title>
<path fill="none" stroke="#00ff00" stroke-width=".1913" stroke-dasharray="1,5" d="M186.7717,-183.6939C189.3846,-151.6904 193.9477,-95.8012 196.9076,-59.547"/>
<polygon fill="#00ff00" stroke="#00ff00" stroke-width=".1913" points="200.4085,-59.6782 197.7339,-49.4266 193.4317,-59.1086 200.4085,-59.6782"/>
</g>
<!-- 1947&#45;&gt;2351 -->
<g id="edge4" class="edge">
<title>1947&#45;&gt;2351</title>
<path fill="none" stroke="#ff0000" stroke-width=".3525" d="M194.4683,-281.9106C192.9287,-270.2776 191.0667,-256.2086 189.3861,-243.5105"/>
<polygon fill="#ff0000" stroke="#ff0000" stroke-width=".3525" points="192.81,-242.7044 188.0281,-233.2501 185.8705,-243.6229 192.81,-242.7044"/>
</g>
<!-- 1947&#45;&gt;1786 -->
<g id="edge2" class="edge">
<title>1947&#45;&gt;1786</title>
<path fill="none" stroke="#ff0000" stroke-width=".2625" stroke-dasharray="1,5" d="M207.6861,-283.8047C212.0138,-272.6195 216.586,-258.824 218.7487,-245.9483 229.802,-180.1421 217.2165,-102.1804 207.9091,-58.5981"/>
<polygon fill="#ff0000" stroke="#ff0000" stroke-width=".2625" points="211.3203,-57.814 205.7476,-48.8031 204.4848,-59.3224 211.3203,-57.814"/>
</g>
<!-- 2879&#45;&gt;A XOR B -->
<g id="edge11" class="edge">
<title>2879&#45;&gt;A XOR B</title>
<path fill="none" stroke="#ff0000" stroke-width=".4715" d="M38.9577,-285.8659C46.4572,-274.8713 55.9132,-261.0083 64.7433,-248.0629"/>
<polygon fill="#ff0000" stroke="#ff0000" stroke-width=".4715" points="67.6851,-249.9614 70.4287,-239.7279 61.9022,-246.0168 67.6851,-249.9614"/>
</g>
</g>
</svg>
